# xmcd CD database file
#
# Track frame offsets:
#	150
#	19268
#	49589
#	65564
#	92248
#	115627
#	142417
#	171386
#	193242
#	214181
#
# Disc length: 3129 seconds
#
# Revision: 0
# Processed by: cddbd v1.5PL3 Copyright (c) Steve Scherf et al.
# Submitted via: CDex 1.51
#
DISCID=9b0c370a
DTITLE=Yoshiko Fukuda - Live at B-Flat SUKIYAKI
DYEAR=2003
DGENRE=Jazz
TTITLE0=You'd be so nice to come home to
TTITLE1=My Funny Valentine
TTITLE2=Straighten Up and Fly Right
TTITLE3=As Time Goes by
TTITLE4=Old Devil Moon
TTITLE5=Lullaby of Birdland
TTITLE6=Someone to Watch over Me
TTITLE7=On Green Dolphin Street
TTITLE8=SUKIYAKI
TTITLE9=All Right,Okay,You Win
EXTD=YEAR: 2003
EXTT0=
EXTT1=
EXTT2=
EXTT3=
EXTT4=
EXTT5=
EXTT6=
EXTT7=
EXTT8=
EXTT9=
PLAYORDER=
